<svg version="1.1" xmlns="http://www.w3.org/2000/svg" xmlns:xlink="http://www.w3.org/1999/xlink" width="1022" height="327" viewBox="0,0,1022,327"><g transform="translate(230.15628,-13.77826) scale(0.854,0.854)"><g id="wick_project_bg" fill="#ffffff" fill-rule="nonzero" stroke="none" stroke-width="1" stroke-linecap="butt" stroke-linejoin="miter" stroke-miterlimit="10" stroke-dasharray="" stroke-dashoffset="0" font-family="none" font-weight="none" font-size="none" text-anchor="none" style="mix-blend-mode: normal"><rect x="0" y="0" width="720" height="480"/></g><g data-paper-data="{&quot;wickUUID&quot;:&quot;ce43c6f6-62c6-4d7b-b74c-3e4a1c95959f&quot;,&quot;wickType&quot;:&quot;clipsandpaths&quot;}" fill="none" fill-rule="none" stroke="none" stroke-width="none" stroke-linecap="none" stroke-linejoin="miter" stroke-miterlimit="10" stroke-dasharray="" stroke-dashoffset="0" font-family="none" font-weight="none" font-size="none" text-anchor="none" style="mix-blend-mode: normal"><path d="M118.45748,147.72516c0.01613,-0.00039 0.03226,-0.00064 0.04841,-0.00074c0.02384,-0.02305 0.04803,-0.04621 0.07259,-0.06949c-0.04036,0.02337 -0.08069,0.04677 -0.121,0.07023z" data-paper-data="{&quot;wickUUID&quot;:&quot;f7b3ad56-8646-4e62-81e4-2cbceaec0816&quot;,&quot;wickType&quot;:&quot;path&quot;}" id="f7b3ad56-8646-4e62-81e4-2cbceaec0816" fill="#ffffff" fill-rule="nonzero" stroke="none" stroke-width="7" stroke-linecap="butt"/><path d="M237.50287,203.61732c-0.56572,36.36583 -35.17309,65.31493 -77.29774,64.65961c-42.12465,-0.65532 -75.8148,-30.66688 -75.24908,-67.03271c0.33858,-21.7646 12.87055,-40.87257 31.90981,-52.56751c-0.02846,0.09819 -0.04892,0.20671 -0.06218,0.32717c-1.1084,1.03929 -1.76937,2.34343 -1.21421,3.26237c0.40546,0.67128 1.13627,1.01667 1.98266,1.03784c0.98635,1.97314 3.52336,2.30762 8.49898,1.32247c5.98667,-1.18533 7.53164,-2.09141 7.13127,-4.18129c-0.57883,-3.03036 5.36596,-5.9037 11.99895,-5.80051c3.27171,0.05089 6.91238,-0.41496 8.09069,-1.03523c1.17828,-0.61901 5.32635,-1.16783 9.21804,-1.21834c3.95616,-0.05237 7.00154,-0.54738 9.02975,-1.44094c0.68535,0.1312 1.57599,-0.1191 2.569,-0.87533c0.9757,-0.74354 1.43191,-1.36493 1.55539,-2.26459c35.63658,6.03211 62.34287,33.39586 61.83867,65.80699z" data-paper-data="{&quot;wickUUID&quot;:&quot;2fe7baf6-c808-4859-a2a3-63f9c0a3def2&quot;,&quot;wickType&quot;:&quot;path&quot;}" id="2fe7baf6-c808-4859-a2a3-63f9c0a3def2" fill="#ffffff" fill-rule="nonzero" stroke="none" stroke-width="7" stroke-linecap="butt"/><path d="M216.60386,220.36069c0.15462,-1.09684 0.49525,-3.00613 0.76276,-4.27453c0.26751,-1.2684 0.68639,-3.34739 0.91342,-4.50074c0.22744,-1.15335 0.44974,-5.62165 0.48891,-9.84344l-0.84266,-8.77127l-57.44889,-0.90318l-57.35544,-0.89115l-1.66246,3.75702c-1.34975,5.66413 -0.2014,17.88424 2.23902,23.83112l1.76475,2.77788l54.90999,0.85477l54.91382,0.85358z" data-paper-data="{&quot;wickUUID&quot;:&quot;f130021e-513c-476e-a497-a39805ab06c8&quot;,&quot;wickType&quot;:&quot;path&quot;}" id="f130021e-513c-476e-a497-a39805ab06c8" fill="#ffff00" fill-rule="evenodd" stroke="none" stroke-width="1" stroke-linecap="butt"/><path d="M220.72213,185.38054c-1.18681,-3.53832 -4.36125,-7.66218 -12.85189,-16.6955l-5.41848,-5.40631l-41.56136,-0.65261l-41.5341,-0.64264l-4.25588,3.96752c-5.02513,5.14251 -7.49409,8.26889 -10.88004,13.77681c-1.64269,2.67187 -2.31234,6.71668 -2.39229,6.90768c-0.08037,0.191 26.65083,0.76949 59.27577,1.27701l59.35337,0.92287z" data-paper-data="{&quot;wickUUID&quot;:&quot;c05b5d44-97f1-466c-83db-8a8789e8e168&quot;,&quot;wickType&quot;:&quot;path&quot;}" id="c05b5d44-97f1-466c-83db-8a8789e8e168" fill="#ff0000" fill-rule="evenodd" stroke="none" stroke-width="1" stroke-linecap="butt"/><path d="M196.95017,248.93563c5.09978,-2.66647 9.30315,-5.96114 12.46105,-9.73561c2.26071,-2.7018 5.20046,-7.75596 5.72984,-9.90246l-0.61982,-2.73438l-54.53992,-0.84869l-54.5657,-0.84776l0.29603,4.0566c0.65224,1.34077 2.817,4.75695 4.66322,7.39013c3.49653,4.98775 5.08605,6.47357 10.943,10.19349c1.74334,1.10744 4.09233,2.65426 4.5003,3.11957c0.72875,0.83082 1.42997,0.86091 33.46833,1.32398l32.71723,0.47104z" data-paper-data="{&quot;wickUUID&quot;:&quot;ebaed5cf-4e76-4131-a11c-58a92347221d&quot;,&quot;wickType&quot;:&quot;path&quot;}" id="ebaed5cf-4e76-4131-a11c-58a92347221d" fill="#ff0000" fill-rule="evenodd" stroke="none" stroke-width="1" stroke-linecap="butt"/><path d="M118.45748,147.72516c0.04031,-0.02346 0.08064,-0.04686 0.121,-0.07023" data-paper-data="{&quot;wickUUID&quot;:&quot;607b9cc4-4d3c-468b-b4c8-d2b8671d747b&quot;,&quot;wickType&quot;:&quot;path&quot;}" id="607b9cc4-4d3c-468b-b4c8-d2b8671d747b" fill="none" fill-rule="nonzero" stroke="#000000" stroke-width="7" stroke-linecap="round"/><path d="M174.18657,137.81033c35.63658,6.03211 62.34287,33.39586 61.83867,65.80699c-0.56572,36.36583 -35.1731,65.31493 -77.29775,64.65961c-42.12465,-0.65532 -75.81479,-30.66688 -75.24907,-67.03271c0.33858,-21.7646 12.87054,-40.87257 31.9098,-52.56751" data-paper-data="{&quot;wickUUID&quot;:&quot;cf8bd108-e186-49f5-ba65-887d2a3bb5d5&quot;,&quot;wickType&quot;:&quot;path&quot;}" id="cf8bd108-e186-49f5-ba65-887d2a3bb5d5" fill="none" fill-rule="nonzero" stroke="#0080ff" stroke-width="7" stroke-linecap="round"/><line x1="175.74161" y1="138.32873" x2="176.398" y2="96.13445" data-paper-data="{&quot;wickUUID&quot;:&quot;5cbc84a8-18cf-4c14-9b4d-1fba7df28680&quot;,&quot;wickType&quot;:&quot;path&quot;}" id="5cbc84a8-18cf-4c14-9b4d-1fba7df28680" fill="#0080ff" fill-rule="nonzero" stroke="#0080ff" stroke-width="7" stroke-linecap="round"/><line x1="174.92037" y1="96.13445" x2="101.10604" y2="158.97362" data-paper-data="{&quot;wickUUID&quot;:&quot;7fcf42a9-da55-4168-bf9c-f3a8eff23b40&quot;,&quot;wickType&quot;:&quot;path&quot;}" id="7fcf42a9-da55-4168-bf9c-f3a8eff23b40" fill="none" fill-rule="nonzero" stroke="#0080ff" stroke-width="7" stroke-linecap="round"/><line x1="192.3591" y1="251.58636" x2="127.70658" y2="250.58059" data-paper-data="{&quot;wickUUID&quot;:&quot;57a151b5-8837-464b-bc36-b01847ba0bb6&quot;,&quot;wickType&quot;:&quot;path&quot;}" id="57a151b5-8837-464b-bc36-b01847ba0bb6" fill="none" fill-rule="nonzero" stroke="#ff0000" stroke-width="1" stroke-linecap="round"/><line x1="215.20992" y1="226.70083" x2="105.64089" y2="224.99632" data-paper-data="{&quot;wickUUID&quot;:&quot;a00a798a-8c71-41d5-8a0e-c62a21326e80&quot;,&quot;wickType&quot;:&quot;path&quot;}" id="a00a798a-8c71-41d5-8a0e-c62a21326e80" fill="none" fill-rule="nonzero" stroke="#ff0000" stroke-width="1" stroke-linecap="round"/><line x1="221.14804" y1="188.93169" x2="100.88045" y2="187.06075" data-paper-data="{&quot;wickUUID&quot;:&quot;90b1a0d9-95f5-48e0-a958-6a0bfce67b3f&quot;,&quot;wickType&quot;:&quot;path&quot;}" id="90b1a0d9-95f5-48e0-a958-6a0bfce67b3f" fill="none" fill-rule="nonzero" stroke="#ff0000" stroke-width="1" stroke-linecap="round"/><line x1="203.66916" y1="163.41878" x2="119.14448" y2="162.10387" data-paper-data="{&quot;wickUUID&quot;:&quot;da3f2c94-62c7-4874-8887-786f7c248215&quot;,&quot;wickType&quot;:&quot;path&quot;}" id="da3f2c94-62c7-4874-8887-786f7c248215" fill="none" fill-rule="nonzero" stroke="#ff0000" stroke-width="1" stroke-linecap="round"/><path d="M192.31387,251.20047c0.3921,-0.38008 2.53144,-1.52683 5.20771,-2.79015c2.78563,-1.31589 4.11396,-2.16856 7.16303,-4.5998c4.44072,-3.54164 9.14828,-10.20145 10.33648,-14.6216c0.24249,-0.90364 0.44491,-1.90887 0.44997,-2.2344c0.01781,-1.1444 -0.31788,-0.57792 -0.71284,1.203c-0.51026,2.29657 -1.12444,3.72828 -2.66895,6.22835c-2.59316,4.19636 -5.06477,6.98744 -8.66471,9.7824c-2.63419,2.04646 -3.77601,2.75563 -6.01246,3.73553c-2.87815,1.26018 -5.66003,2.903 -5.66692,3.34588c-0.00386,0.24857 0.28678,0.22405 0.56869,-0.04921z" data-paper-data="{&quot;wickUUID&quot;:&quot;41b6247f-8ef7-4003-b3ff-0a52f40e2929&quot;,&quot;wickType&quot;:&quot;path&quot;}" id="41b6247f-8ef7-4003-b3ff-0a52f40e2929" fill="#ff0000" fill-rule="evenodd" stroke="none" stroke-width="1" stroke-linecap="butt"/><path d="M127.51212,250.66737c-0.13694,-0.36434 -2.57422,-2.53764 -3.76921,-3.36016c-0.68179,-0.46873 -2.72202,-1.80039 -4.53524,-2.95813c-3.95884,-2.52889 -4.94819,-3.50721 -7.93234,-7.84587c-4.39481,-6.38619 -6.08509,-9.44393 -6.10562,-11.04453c-0.00462,-0.35218 -0.10704,-0.58348 -0.23771,-0.54008c-0.64324,0.21716 0.14512,2.75984 1.65363,5.33265c2.22893,3.80316 6.93481,10.39485 8.3112,11.64424c0.82012,0.74348 3.45631,2.54253 7.13935,4.87151c1.18102,0.74658 2.81406,1.96714 3.62908,2.71433c1.3389,1.22608 2.0274,1.66843 1.84686,1.18604z" data-paper-data="{&quot;wickUUID&quot;:&quot;fdfbd8aa-176a-48cb-a6d9-a51dc38a1c8d&quot;,&quot;wickType&quot;:&quot;path&quot;}" id="fdfbd8aa-176a-48cb-a6d9-a51dc38a1c8d" fill="#ff0000" fill-rule="evenodd" stroke="none" stroke-width="1" stroke-linecap="butt"/><path d="M221.44093,187.9217c-0.20092,-1.52515 -1.28113,-4.1279 -2.51927,-6.07053c-1.67918,-2.63478 -6.58585,-8.40674 -11.40718,-13.41762c-2.44792,-2.54452 -4.44932,-4.74764 -4.44699,-4.89779c0.00232,-0.14889 -0.09799,-0.27287 -0.22291,-0.27481c-0.75326,-0.01172 0.18402,1.2321 3.471,4.60116c3.58262,3.67277 9.30175,10.2752 11.50644,13.28414c1.31983,1.80255 2.5133,4.34521 2.97196,6.33881c0.40554,1.75804 0.8614,2.0655 0.64695,0.43664z" data-paper-data="{&quot;wickUUID&quot;:&quot;d306282f-daaf-4e6d-b7a9-cc873f15ec6c&quot;,&quot;wickType&quot;:&quot;path&quot;}" id="d306282f-daaf-4e6d-b7a9-cc873f15ec6c" fill="#ff0000" fill-rule="evenodd" stroke="none" stroke-width="1" stroke-linecap="butt"/><path d="M100.62547,187.05585c0.15529,-0.40902 0.6621,-1.34767 1.12538,-2.08507c0.46454,-0.73738 1.89149,-3.06259 3.17114,-5.16798c3.4102,-5.60724 5.0634,-7.70934 10.17393,-12.93298c3.90249,-3.99047 5.04685,-5.34957 4.51061,-5.35791c-0.05299,-0.00082 -0.70259,0.62514 -1.44144,1.39107c-0.74012,0.76591 -2.64572,2.70633 -4.23562,4.31091c-3.95171,3.9897 -6.52902,7.32937 -9.27117,12.01688c-0.68845,1.17688 -1.86412,3.087 -2.6141,4.244c-1.49097,2.30276 -2.2815,3.7128 -2.28719,4.0787c-0.00844,0.54255 0.6079,0.18866 0.86846,-0.49762z" data-paper-data="{&quot;wickUUID&quot;:&quot;46dd2d04-904c-4da0-9825-6298ba7a7eb1&quot;,&quot;wickType&quot;:&quot;path&quot;}" id="46dd2d04-904c-4da0-9825-6298ba7a7eb1" fill="#ff0000" fill-rule="evenodd" stroke="none" stroke-width="1" stroke-linecap="butt"/><line x1="216.33572" y1="223.17878" x2="104.96774" y2="221.44628" data-paper-data="{&quot;wickUUID&quot;:&quot;e7a759e5-d3e4-4967-8ffc-269af9a5bd4c&quot;,&quot;wickType&quot;:&quot;path&quot;}" id="e7a759e5-d3e4-4967-8ffc-269af9a5bd4c" fill="#ffff00" fill-rule="nonzero" stroke="#ffff00" stroke-width="1" stroke-linecap="round"/><line x1="219.67431" y1="193.2275" x2="102.24827" y2="191.08158" data-paper-data="{&quot;wickUUID&quot;:&quot;22af72b6-d207-4ad2-a6eb-fa0e3a884d76&quot;,&quot;wickType&quot;:&quot;path&quot;}" id="22af72b6-d207-4ad2-a6eb-fa0e3a884d76" fill="#ffff00" fill-rule="nonzero" stroke="#ffff00" stroke-width="1" stroke-linecap="round"/><path d="M216.37781,221.41758c0.16437,-0.66886 0.30928,-1.78983 0.32021,-2.49262c0.01093,-0.70279 0.36323,-2.49953 0.78276,-3.99358c1.02477,-3.65032 1.5968,-10.56627 1.2345,-14.94113c-0.30707,-3.70637 -0.27179,-4.91992 0.16628,-5.65898c0.4005,-0.67654 0.4767,-1.19405 0.17514,-1.19874c-0.1123,-0.00174 -0.40544,0.42657 -0.65212,0.95027c-0.39812,0.84821 -0.42902,1.29324 -0.28337,4.01901c0.33264,6.20057 -0.16448,13.49381 -1.11675,16.37667c-0.28212,0.85506 -0.63413,2.63285 -0.78085,3.95194c-0.14672,1.31909 -0.34395,2.80146 -0.43746,3.29599c-0.25715,1.35901 0.24292,1.09672 0.59166,-0.30883z" data-paper-data="{&quot;wickUUID&quot;:&quot;47f2044b-a5d7-4a4e-b099-445c597623c1&quot;,&quot;wickType&quot;:&quot;path&quot;}" id="47f2044b-a5d7-4a4e-b099-445c597623c1" fill="#ffff00" fill-rule="evenodd" stroke="none" stroke-width="1" stroke-linecap="butt"/><path d="M105.68595,221.25215c0.00124,-0.07949 -0.20757,-0.44874 -0.46428,-0.82125c-0.86271,-1.25149 -1.42737,-3.00315 -2.41266,-7.48867c-1.19634,-5.44038 -1.17706,-5.30126 -1.39919,-9.76228c-0.20149,-4.00384 0.1027,-6.68348 1.14219,-10.06222c0.49317,-1.60396 0.52687,-2.39096 0.0848,-1.96243c-0.37417,0.36269 -1.63944,5.68148 -1.79868,7.56199c-0.29043,3.4169 0.15768,8.52255 1.16316,13.25195c1.09139,5.12954 1.60265,6.82486 2.50111,8.29272c0.59574,0.96969 1.17628,1.45704 1.18355,0.99019z" data-paper-data="{&quot;wickUUID&quot;:&quot;af3f7219-3331-44af-8e14-a5b154a5e6a8&quot;,&quot;wickType&quot;:&quot;path&quot;}" id="af3f7219-3331-44af-8e14-a5b154a5e6a8" fill="#ffff00" fill-rule="evenodd" stroke="none" stroke-width="1" stroke-linecap="butt"/><text x="47.06676" y="56.33626" transform="scale(5.93988,4.4134)" data-paper-data="{&quot;wickUUID&quot;:&quot;de65d8f1-9127-4cb4-9f47-f5fe2cf7c751&quot;,&quot;wickType&quot;:&quot;path&quot;}" id="de65d8f1-9127-4cb4-9f47-f5fe2cf7c751" fill="#000000" fill-rule="nonzero" stroke="#000000" stroke-width="1.4" stroke-linecap="butt" font-family="Belleza" font-weight="400 normal" font-size="24" text-anchor="start">Nando</text><text x="66.1758" y="50.87483" transform="scale(3.74416,2.98077)" data-paper-data="{&quot;wickUUID&quot;:&quot;393b9e4d-c268-494c-8d80-35bb5fd0a93f&quot;,&quot;wickType&quot;:&quot;path&quot;}" id="393b9e4d-c268-494c-8d80-35bb5fd0a93f" fill="#000000" fill-rule="nonzero" stroke="#000000" stroke-width="1.4" stroke-linecap="butt" font-family="Annie Use Your Telescope" font-weight="400 normal" font-size="24" text-anchor="start">Estudiando</text><text x="112.49998" y="81.1175" transform="scale(3.31609,2.28339)" data-paper-data="{&quot;wickUUID&quot;:&quot;12b1c4ab-7c07-41d5-b019-563c735fc752&quot;,&quot;wickType&quot;:&quot;path&quot;}" id="12b1c4ab-7c07-41d5-b019-563c735fc752" fill="#000000" fill-rule="nonzero" stroke="#000000" stroke-width="1.4" stroke-linecap="butt" font-family="Annie Use Your Telescope" font-weight="400 normal" font-size="24" text-anchor="start">con</text></g><g fill="none" fill-rule="nonzero" stroke="none" stroke-width="1" stroke-linecap="butt" stroke-linejoin="miter" stroke-miterlimit="10" stroke-dasharray="" stroke-dashoffset="0" font-family="sans-serif" font-weight="normal" font-size="12" text-anchor="start" style="mix-blend-mode: normal"/><g id="wick_project_gui" fill="none" fill-rule="nonzero" stroke="none" stroke-width="1" stroke-linecap="butt" stroke-linejoin="miter" stroke-miterlimit="10" stroke-dasharray="" stroke-dashoffset="0" font-family="sans-serif" font-weight="normal" font-size="12" text-anchor="start" style="mix-blend-mode: normal"/></g></svg>